<svg xmlns="http://www.w3.org/2000/svg" viewBox="0 0 512 512" width="512" height="512">
  <defs>
    <linearGradient id="bg" x1="0" y1="0" x2="1" y2="1">
      <stop offset="0%" stop-color="#0b1027"/>
      <stop offset="55%" stop-color="#1e1b4b"/>
      <stop offset="100%" stop-color="#3b1d4e"/>
    </linearGradient>
    <linearGradient id="lk" x1="0" y1="0" x2="1" y2="1">
      <stop offset="0%" stop-color="#22d3ee"/>
      <stop offset="100%" stop-color="#e0885a"/>
    </linearGradient>
    <radialGradient id="nd">
      <stop offset="0%" stop-color="#ffffff"/>
      <stop offset="50%" stop-color="#5eead4"/>
      <stop offset="100%" stop-color="#6366f1"/>
    </radialGradient>
  </defs>

  <rect width="512" height="512" rx="112" fill="url(#bg)"/>

  <g stroke="url(#lk)" stroke-width="9" opacity="0.85" stroke-linecap="round">
    <line x1="140" y1="180" x2="256" y2="126"/>
    <line x1="140" y1="180" x2="256" y2="248"/>
    <line x1="140" y1="332" x2="256" y2="248"/>
    <line x1="140" y1="332" x2="256" y2="380"/>
    <line x1="256" y1="126" x2="372" y2="186"/>
    <line x1="256" y1="248" x2="372" y2="186"/>
    <line x1="256" y1="248" x2="372" y2="330"/>
    <line x1="256" y1="380" x2="372" y2="330"/>
  </g>

  <g fill="url(#nd)">
    <circle cx="140" cy="180" r="25"/>
    <circle cx="140" cy="332" r="25"/>
    <circle cx="256" cy="126" r="22"/>
    <circle cx="256" cy="248" r="34"/>
    <circle cx="256" cy="380" r="22"/>
    <circle cx="372" cy="186" r="25"/>
    <circle cx="372" cy="330" r="25"/>
  </g>
</svg>
